Coordinates
version=1
nRows=18
nColumns=22
inDegrees=yes

Units are S.I. units (second, meters, Newtons, ...)
If the header above contains a line with 'inDegrees', this indicates whether rotational values are in degrees (yes) or radians (no).

endheader
time	pelvis_tilt	pelvis_list	pelvis_rotation	pelvis_tx	pelvis_ty	pelvis_tz	hip_flexion_r	hip_adduction_r	hip_rotation_r	knee_angle_r	ankle_angle_r	subtalar_angle_r	hip_flexion_l	hip_adduction_l	hip_rotation_l	knee_angle_l	ankle_angle_l	subtalar_angle_l	lumbar_extension	lumbar_bending	lumbar_rotation
      3.28000000	      6.88399481	      6.93262037	     68.32171296	      0.89586993	      0.93361730	      0.07306649	     14.07209531	     -5.07822431	     -5.08090096	    -50.81942556	      3.63233207	      6.92124450	     -4.97198712	      6.12319438	     -5.17655661	    -21.37507799	     24.41788985	    -23.85415655	    -13.79800573	      3.51088324	    -11.71290939
      3.29000000	      6.77110796	      7.03798980	     69.42011461	      0.89888030	      0.93404240	      0.06508628	     14.57128890	     -5.26960907	     -5.65302451	    -48.34675669	      4.07371841	      6.30016515	     -5.96470014	      6.05338501	     -4.23778511	    -20.70872076	     24.45872407	    -23.48994016	    -13.75012657	      3.54285444	    -12.07978630
      3.30000000	      6.63229511	      7.15619737	     70.52792569	      0.90187544	      0.93427900	      0.05709596	     14.95874454	     -5.47388357	     -6.32826113	    -45.70347932	      4.35119767	      5.83615230	     -6.93870104	      5.97429074	     -3.32133393	    -20.09002623	     24.50731820	    -23.11203185	    -13.71052382	      3.53537513	    -12.47260697
      3.31000000	      6.46192886	      7.27379028	     71.65189389	      0.90485606	      0.93428911	      0.04910845	     15.25757575	     -5.68287062	     -7.10719241	    -42.91548736	      4.42998695	      5.58438251	     -7.86566748	      5.88663131	     -2.41526265	    -19.54488536	     24.57736718	    -22.72404276	    -13.66428114	      3.48718297	    -12.90938184
      3.32000000	      6.24527959	      7.34552623	     72.80270389	      0.90779258	      0.93397678	      0.04113842	     15.53804735	     -5.89848274	     -8.00384594	    -40.02831852	      4.24677033	      5.57255527	     -8.66684848	      5.79344653	     -1.51567719	    -19.12375088	     24.70498114	    -22.35658508	    -13.55999685	      3.40448173	    -13.40576531
      3.33000000	      6.07487364	      7.53436811	     73.90426646	      0.91083441	      0.93367979	      0.03313448	     15.57567858	     -6.03621032	     -8.94578675	    -37.00460705	      3.91028698	      5.74571033	     -9.61712600	      5.65828619	     -0.68082417	    -18.69337596	     24.82687364	    -21.82748496	    -13.61210596	      3.30862488	    -13.82345970
      3.34000000	      5.87706415	      7.66995974	     75.01650134	      0.91387394	      0.93305513	      0.02516817	     15.61669924	     -6.13056186	     -9.95305141	    -33.93623714	      3.30925443	      6.19558782	    -10.42545918	      5.50028003	      0.12439923	    -18.41228775	     25.04922539	    -21.25747359	    -13.60809685	      3.19808107	    -14.28274405
      3.35000000	      5.68213910	      7.79932309	     76.10241386	      0.91699793	      0.93221136	      0.01723917	     15.60637147	     -6.14022045	    -10.94233135	    -30.83324992	      2.51912463	      6.89761172	    -11.17231687	      5.30821187	      0.85853856	    -18.23955334	     25.35239403	    -20.63496666	    -13.61289873	      3.07415046	    -14.71960574
      3.36000000	      5.48578364	      7.90652035	     77.13650720	      0.92023976	      0.93113740	      0.00934976	     15.58299853	     -6.05777144	    -11.83524222	    -27.73492116	      1.54670814	      7.87702063	    -11.84570954	      5.09127548	      1.48809981	    -18.16019575	     25.72679462	    -19.95136033	    -13.60700668	      2.93520797	    -15.09768783
      3.37000000	      5.31902311	      8.01614039	     78.14507387	      0.92357788	      0.92989803	      0.00151207	     15.49020521	     -5.85626512	    -12.58216391	    -24.62602356	      0.67092561	      8.87721022	    -12.45769933	      4.82221965	      2.05119428	    -18.21698976	     26.17848095	    -19.33020097	    -13.63039650	      2.81098312	    -15.44376125
      3.38000000	      5.14444889	      8.08914030	     79.08012716	      0.92708076	      0.92845282	     -0.00626572	     15.41040605	     -5.56124955	    -13.01823824	    -21.55786719	     -0.19698174	     10.15333537	    -12.98460538	      4.54475742	      2.48565288	    -18.35327042	     26.66655175	    -18.66859031	    -13.62673296	      2.65822428	    -15.70853042
      3.39000000	      5.01403827	      8.16280507	     79.97177280	      0.93069233	      0.92690488	     -0.01402830	     15.24938714	     -5.15417246	    -13.16120119	    -18.50010459	     -0.81060186	     11.43946148	    -13.47330279	      4.21076865	      2.83671957	    -18.58268002	     27.18937098	    -18.08212276	    -13.64681245	      2.53828617	    -15.92304443
      3.40000000	      4.90278752	      8.22903237	     80.82588686	      0.93436440	      0.92524120	     -0.02178130	     15.02986925	     -4.68891402	    -12.95010859	    -15.50135763	     -1.19368333	     12.80761509	    -13.90587008	      3.84915729	      3.10057994	    -18.90876037	     27.72390939	    -17.53651592	    -13.67126803	      2.42902825	    -16.09352168
      3.41000000	      4.80863335	      8.28454633	     81.65113180	      0.93806029	      0.92347331	     -0.02955464	     14.75952352	     -4.20626860	    -12.44637821	    -12.61795444	     -1.30556724	     14.17211188	    -14.28570018	      3.47208806	      3.36533889	    -19.32252555	     28.26598060	    -17.03493990	    -13.69221506	      2.33220507	    -16.19881203
      3.42000000	      4.74578686	      8.37583729	     82.47059070	      0.94170035	      0.92168971	     -0.03741613	     14.39012891	     -3.73751812	    -11.78933360	     -9.91932388	     -1.20960057	     15.36869357	    -14.66366407	      3.06099746	      3.57245134	    -19.82711661	     28.78994948	    -16.60849210	    -13.75451909	      2.27388561	    -16.30761458
      3.43000000	      4.69339617	      8.47762897	     83.27586317	      0.94528260	      0.91985845	     -0.04538701	     14.02018129	     -3.32354388	    -11.14737359	     -7.57836344	     -0.92816312	     16.40544134	    -15.02126582	      2.65146902	      3.83838159	    -20.40609511	     29.29584143	    -16.21043543	    -13.81866366	      2.22954956	    -16.37704527
      3.44000000	      4.65807149	      8.59699601	     84.07734447	      0.94876358	      0.91802134	     -0.05348077	     13.69059134	     -2.96557603	    -10.68806364	     -5.73027329	     -0.54342839	     17.18818498	    -15.36473724	      2.23435438	      4.15285265	    -21.06049716	     29.78760011	    -15.84528334	    -13.89219627	      2.21727053	    -16.43287154
      3.45000000	      4.64336653	      8.71043705	     84.86800671	      0.95216824	      0.91617687	     -0.06168904	     13.48797487	     -2.64840275	    -10.52070404	     -4.51740620	     -0.10124418	     17.54685310	    -15.65848059	      1.81066683	      4.55253593	    -21.81359697	     30.29092681	    -15.57003911	    -13.94655264	      2.24051162	    -16.46773583
